<?xml version="1.0" encoding="iso-8859-1"?>
<!-- Generator: Adobe Illustrator 19.0.0, SVG Export Plug-In . SVG Version: 6.00 Build 0)  -->
<svg version="1.1" id="Capa_1" xmlns="http://www.w3.org/2000/svg" xmlns:xlink="http://www.w3.org/1999/xlink" x="0px" y="0px"
	 viewBox="0 0 480 480" style="enable-background:new 0 0 480 480;" xml:space="preserve">
<path style="fill:#F4F2ED;" d="M384,8H8v464h464V96h-88V8z M72,432c-17.672,0-32-14.328-32-32s14.328-32,32-32s32,14.328,32,32
	S89.672,432,72,432z M128,288v24H40v-88h24h64V288z M128,160v24H40V96h24h64V160z M200,432l40-64l40,64H200z M440,368v64h-64v-64
	H440z"/>
<rect x="376" y="368" style="fill:#36C2CC;" width="64" height="64"/>
<polygon style="fill:#EF5E65;" points="200,432 280,432 240,368 "/>
<circle style="fill:#36C2CC;" cx="72" cy="400" r="32"/>
<polygon style="fill:#EF5E65;" points="384,96 472,96 384,8 "/>
<g>
	<polygon style="fill:#EFD06F;" points="40,96 40,184 128,184 128,160 128,96 64,96 	"/>
	<polygon style="fill:#EFD06F;" points="40,224 40,312 128,312 128,288 128,224 64,224 	"/>
</g>
<g>
	<path style="fill:#0F2323;" d="M440,360h-64c-4.424,0-8,3.584-8,8v64c0,4.416,3.576,8,8,8h64c4.424,0,8-3.584,8-8v-64
		C448,363.584,444.424,360,440,360z M432,424h-48v-48h48V424z"/>
	<path style="fill:#0F2323;" d="M246.784,363.76c-2.92-4.68-10.64-4.68-13.56,0l-40,64c-1.544,2.464-1.624,5.576-0.216,8.12
		c1.408,2.544,4.088,4.12,6.992,4.12h80c2.904,0,5.584-1.576,7-4.12c1.408-2.544,1.328-5.656-0.216-8.12L246.784,363.76z
		 M214.44,424L240,383.096L265.56,424H214.44z"/>
	<path style="fill:#0F2323;" d="M72,360c-22.056,0-40,17.944-40,40s17.944,40,40,40s40-17.944,40-40S94.056,360,72,360z M72,424
		c-13.232,0-24-10.768-24-24s10.768-24,24-24s24,10.768,24,24S85.232,424,72,424z"/>
	<path style="fill:#0F2323;" d="M149.656,362.344l-11.312,11.312L156.688,392H128v16h28.688l-18.344,18.344l11.312,11.312l32-32
		l-0.048-0.048c0.728-0.728,1.376-1.552,1.784-2.544c1.24-2.992,0.552-6.432-1.736-8.72L149.656,362.344z"/>
	<path style="fill:#0F2323;" d="M317.656,362.344l-11.312,11.312L324.688,392H296v16h28.688l-18.344,18.344l11.312,11.312l32-32
		l-0.048-0.048c0.728-0.728,1.376-1.552,1.784-2.544c1.24-2.992,0.552-6.432-1.736-8.72L317.656,362.344z"/>
	<rect x="160" y="32" style="fill:#0F2323;" width="168" height="16"/>
	<path style="fill:#0F2323;" d="M479.488,93.432c-0.088-0.256-0.152-0.496-0.264-0.744c-0.392-0.848-0.88-1.656-1.568-2.344l-88-88
		c-0.688-0.688-1.488-1.176-2.336-1.568c-0.248-0.112-0.504-0.184-0.76-0.272c-0.664-0.224-1.344-0.36-2.04-0.408
		C384.336,0.088,384.176,0,384,0H8C3.576,0,0,3.584,0,8v464c0,4.416,3.576,8,8,8h464c4.424,0,8-3.584,8-8V96
		c0-0.168-0.088-0.32-0.096-0.488C479.856,94.792,479.72,94.112,479.488,93.432z M452.688,88H392V27.312L452.688,88z M16,464V16h360
		v80c0,4.416,3.576,8,8,8h80v360H16z"/>
	<path style="fill:#0F2323;" d="M40,192h88c4.424,0,8-3.584,8-8v-24h-16v16H48v-72h16V88H40c-4.424,0-8,3.584-8,8v88
		C32,188.416,35.576,192,40,192z"/>
	<path style="fill:#0F2323;" d="M82.344,157.656C83.904,159.216,85.952,160,88,160s4.096-0.784,5.656-2.344l64-64l-11.312-11.312
		L88,140.688l-18.344-18.344l-11.312,11.312L82.344,157.656z"/>
	<rect x="184" y="104" style="fill:#0F2323;" width="96" height="16"/>
	<rect x="296" y="104" style="fill:#0F2323;" width="48" height="16"/>
	<rect x="248" y="160" style="fill:#0F2323;" width="96" height="16"/>
	<rect x="184" y="160" style="fill:#0F2323;" width="48" height="16"/>
	<path style="fill:#0F2323;" d="M40,320h88c4.424,0,8-3.584,8-8v-24h-16v16H48v-72h16v-16H40c-4.424,0-8,3.584-8,8v88
		C32,316.416,35.576,320,40,320z"/>
	<path style="fill:#0F2323;" d="M69.656,250.344l-11.312,11.312l24,24C83.904,287.216,85.952,288,88,288s4.096-0.784,5.656-2.344
		l64-64l-11.312-11.312L88,268.688L69.656,250.344z"/>
	<rect x="184" y="232" style="fill:#0F2323;" width="72" height="16"/>
	<rect x="272" y="232" style="fill:#0F2323;" width="72" height="16"/>
	<rect x="360" y="232" style="fill:#0F2323;" width="72" height="16"/>
	<rect x="336" y="288" style="fill:#0F2323;" width="96" height="16"/>
	<rect x="184" y="288" style="fill:#0F2323;" width="136" height="16"/>
</g>
<g>
</g>
<g>
</g>
<g>
</g>
<g>
</g>
<g>
</g>
<g>
</g>
<g>
</g>
<g>
</g>
<g>
</g>
<g>
</g>
<g>
</g>
<g>
</g>
<g>
</g>
<g>
</g>
<g>
</g>
</svg>
