<?xml version="1.0"?>
<svg xmlns="http://www.w3.org/2000/svg" id="Capa_1" enable-background="new 0 0 512 512" height="512px" viewBox="0 0 512 512" width="512px"><g><path d="m220.814 268.591c11.357-10.699 26.21-16.591 41.824-16.591h97.362v-237c0-8.284-6.716-15-15-15h-330c-8.284 0-15 6.716-15 15v392c0 8.284 6.716 15 15 15h330c7.871 0 14.313-6.065 14.938-13.775-19.661-6.079-36.281-19.122-47-36.225h-50.938c-16.352 0-31.639-6.471-43.045-18.222-11.402-11.746-17.414-27.223-16.928-43.578.471-15.861 7.143-30.639 18.787-41.609zm-19.6-208.106c8.015-2.091 16.209 2.713 18.3 10.729l15.486 59.361 15.486-59.361c2.091-8.016 10.288-12.819 18.3-10.729 8.016 2.092 12.819 10.285 10.728 18.301l-30 115c-1.723 6.606-7.688 11.214-14.514 11.214s-12.791-4.608-14.514-11.214l-30-115c-2.091-8.015 2.712-16.209 10.728-18.301zm-121.214 34.515c0-19.299 15.701-35 35-35h20c19.299 0 35 15.701 35 35 0 8.284-6.716 15-15 15s-15-6.716-15-15c0-2.757-2.243-5-5-5h-20c-2.757 0-5 2.243-5 5v80c0 2.757 2.243 5 5 5h20c2.757 0 5-2.243 5-5 0-8.284 6.716-15 15-15s15 6.716 15 15c0 19.299-15.701 35-35 35h-20c-19.299 0-35-15.701-35-35zm85 295h-90c-8.284 0-15-6.716-15-15s6.716-15 15-15h90c8.284 0 15 6.716 15 15s-6.716 15-15 15zm0-60h-90c-8.284 0-15-6.716-15-15s6.716-15 15-15h90c8.284 0 15 6.716 15 15s-6.716 15-15 15zm30-60h-120c-8.284 0-15-6.716-15-15s6.716-15 15-15h120c8.284 0 15 6.716 15 15s-6.716 15-15 15z" data-original="#000000" class="active-path" data-old_color="#000000" fill="#FFFFFF"/><path d="m497 312h-48.787c-9.896 0-19.186-3.942-26.076-11.084-11.932-12.368-28.676-18.916-45.861-18.916h-113.638c-16.324 0-30.14 12.775-30.625 29.092-.503 16.954 13.143 30.908 29.987 30.908h70.096c6.547 23.057 27.777 40 52.904 40 1.765 0 3.452-.321 5.025-.881l-.025 25.881c0 15.934-8.332 29.95-20.86 37.948 8.043 10.21 12.86 23.075 12.86 37.052 0 10.925-2.949 21.167-8.072 30h1.859c17.598 0 34.412-7.066 46.896-19.47 6.786-6.742 15.962-10.53 25.531-10.53h48.786c8.284 0 15-6.716 15-15v-140c0-8.284-6.716-15-15-15z" data-original="#000000" class="active-path" data-old_color="#000000" fill="#FFFFFF"/><path d="m322 452h-70c-16.569 0-30 13.431-30 30 0 16.569 13.431 30 30 30h70c16.569 0 30-13.431 30-30 0-16.569-13.431-30-30-30z" data-original="#000000" class="active-path" data-old_color="#000000" fill="#FFFFFF"/></g> </svg>
